<svg xmlns="http://www.w3.org/2000/svg" width="200" height="200" viewBox="0 0 200 200">
  <defs>
    <style>
      .cls-1 {
        fill: #fff;
        fill-rule: evenodd;
      }
    </style>
  </defs>
  <path id="Rounded_Rectangle_1" data-name="Rounded Rectangle 1" class="cls-1" d="M10,0H190a10,10,0,0,1,10,10V189a10,10,0,0,1-10,10H10A10,10,0,0,1,0,189V10A10,10,0,0,1,10,0ZM39.83,125.8q14.787,0,23.672-8.523t8.885-22.8q0-29.787-32.557-29.787H18.182V125.8H39.83ZM38.679,75.9q9.119,0,14.169,5.007T57.9,94.649q0,9.248-5.092,14.616t-14.041,5.369H31.947V75.9h6.733Zm65.5,49.9q14.787,0,23.672-8.523t8.885-22.8q0-29.787-32.557-29.787H82.529V125.8h21.648Zm-1.15-49.9q9.119,0,14.168,5.007t5.05,13.743q0,9.248-5.092,14.616t-14.041,5.369H96.293V75.9h6.733Zm48.9,50.113a51.8,51.8,0,0,0,9.567.852,44.764,44.764,0,0,0,9.311-.937,22.816,22.816,0,0,0,7.734-3.09,15.734,15.734,0,0,0,5.263-5.625,19.822,19.822,0,0,0,.831-15.085,15.2,15.2,0,0,0-3.2-4.964,23.4,23.4,0,0,0-5.007-3.9A53.663,53.663,0,0,0,169.843,90q-2.685-1.108-4.815-2.152a24.357,24.357,0,0,1-3.622-2.131,9.261,9.261,0,0,1-2.3-2.3,4.841,4.841,0,0,1-.81-2.749,4.6,4.6,0,0,1,.724-2.535,6.261,6.261,0,0,1,2.046-1.939A10.933,10.933,0,0,1,164.3,74.94a18.784,18.784,0,0,1,4.262-.448,27,27,0,0,1,3.6.256,28.54,28.54,0,0,1,3.814.788,26.65,26.65,0,0,1,3.728,1.342,20.592,20.592,0,0,1,3.345,1.875V66.013a33.311,33.311,0,0,0-6.8-1.769,55.381,55.381,0,0,0-8.459-.575,39.319,39.319,0,0,0-9.205,1.044,23.424,23.424,0,0,0-7.649,3.26,16.285,16.285,0,0,0-5.22,5.646,16.567,16.567,0,0,0-1.918,8.2,15.907,15.907,0,0,0,3.516,10.4q3.516,4.3,10.675,7.287,2.813,1.151,5.241,2.258a29.326,29.326,0,0,1,4.2,2.3,11.026,11.026,0,0,1,2.791,2.6,5.292,5.292,0,0,1,1.022,3.2,4.888,4.888,0,0,1-.639,2.45,5.661,5.661,0,0,1-1.939,1.96,10.625,10.625,0,0,1-3.238,1.3,19.447,19.447,0,0,1-4.539.469,25.86,25.86,0,0,1-8.778-1.556,26.182,26.182,0,0,1-8.054-4.666v13.636A28.857,28.857,0,0,0,151.924,126.012Z"/>
</svg>
