<svg xmlns="http://www.w3.org/2000/svg" width="200" height="200" viewBox="0 0 200 200">
  <defs>
    <style>
      .cls-1 {
        fill: #fff;
        fill-rule: evenodd;
      }
    </style>
  </defs>
  <path id="Rounded_Rectangle_1" data-name="Rounded Rectangle 1" class="cls-1" d="M10,0H190a10,10,0,0,1,10,10V189a10,10,0,0,1-10,10H10A10,10,0,0,1,0,189V10A10,10,0,0,1,10,0ZM62.458,114.634H39.574V100.657H59.56V89.493H39.574V75.9H61.051V64.692H25.81V125.8H62.458V114.634ZM105.071,94.99l18.324-30.3H108.054L98.338,82.845q-1.406,3.538-1.918,5.327H96.25a31.7,31.7,0,0,0-1.832-5.156L85.682,64.692H68.935L86.747,95.245,67.273,125.8H83.679l10.568-19.73a31.021,31.021,0,0,0,1.406-4.261h0.17A17.442,17.442,0,0,0,97.06,105.9l10.525,19.9h16.321Zm65.838,12.741q-0.9-1.405-1.982-2.876a31.056,31.056,0,0,0-2.28-2.749,18.923,18.923,0,0,0-2.471-2.237,8.783,8.783,0,0,0-2.642-1.385v-0.17a22.322,22.322,0,0,0,5.646-2.472,17.55,17.55,0,0,0,4.325-3.75,16.407,16.407,0,0,0,2.77-4.879,17.219,17.219,0,0,0,.98-5.9q0-16.619-22.244-16.619H131.193V125.8h13.764V102.4h3.707a5.3,5.3,0,0,1,2.365.533,7.893,7.893,0,0,1,2.088,1.534,17.769,17.769,0,0,1,1.982,2.408q0.98,1.406,2.045,3.2l9.5,15.724h15.81ZM151.179,75q9.588,0,9.588,8.011a8.533,8.533,0,0,1-2.728,6.435,9.89,9.89,0,0,1-7.116,2.557h-5.966V75h6.222Z"/>
</svg>
