<svg xmlns="http://www.w3.org/2000/svg" width="200" height="200" viewBox="0 0 200 200">
  <defs>
    <style>
      .cls-1 {
        fill: #fff;
        fill-rule: evenodd;
      }
    </style>
  </defs>
  <path id="Rounded_Rectangle_1" data-name="Rounded Rectangle 1" class="cls-1" d="M10,0H190a10,10,0,0,1,10,10V189a10,10,0,0,1-10,10H10A10,10,0,0,1,0,189V10A10,10,0,0,1,10,0ZM65.782,64.692H51.975V89.066H26.663V64.692H12.9V125.8H26.663V100.913H51.975V125.8H65.782V64.692ZM101.406,125.8q14.787,0,23.672-8.523t8.885-22.8q0-29.787-32.557-29.787H79.759V125.8h21.647Zm-1.15-49.9q9.118,0,14.169,5.007t5.049,13.743q0,9.248-5.092,14.616t-14.041,5.369H93.523V75.9h6.733Zm83.564,31.832q-0.894-1.405-1.981-2.876a31.231,31.231,0,0,0-2.28-2.749,18.929,18.929,0,0,0-2.472-2.237,8.76,8.76,0,0,0-2.642-1.385v-0.17a22.314,22.314,0,0,0,5.647-2.472,17.55,17.55,0,0,0,4.325-3.75,16.407,16.407,0,0,0,2.77-4.879,17.219,17.219,0,0,0,.98-5.9q0-16.619-22.244-16.619H144.1V125.8h13.764V102.4h3.707a5.3,5.3,0,0,1,2.365.533,7.909,7.909,0,0,1,2.088,1.534,17.844,17.844,0,0,1,1.982,2.408q0.98,1.406,2.045,3.2l9.5,15.724h15.81ZM164.09,75q9.588,0,9.588,8.011a8.532,8.532,0,0,1-2.727,6.435,9.891,9.891,0,0,1-7.116,2.557h-5.966V75h6.221Z"/>
</svg>
