<svg xmlns="http://www.w3.org/2000/svg" width="200" height="200" viewBox="0 0 200 200">
  <defs>
    <style>
      .cls-1 {
        fill: #fff;
        fill-rule: evenodd;
      }
    </style>
  </defs>
  <path id="Rounded_Rectangle_1" data-name="Rounded Rectangle 1" class="cls-1" d="M10,0H190a10,10,0,0,1,10,10V189a10,10,0,0,1-10,10H10A10,10,0,0,1,0,189V10A10,10,0,0,1,10,0ZM55,64.692H41.279V101q0,13.977-9.418,13.977a12.789,12.789,0,0,1-7.926-2.684V125.2a23.439,23.439,0,0,0,8.906,1.662q10.78,0,16.47-6.519T55,101.552V64.692Zm33.707,40.056q11.079,0,17.706-5.689a18.688,18.688,0,0,0,6.627-14.893q0-19.474-23.1-19.474H68.381V125.8H82.145V104.748h6.563ZM87.557,75.26q10.994,0,10.994,9.418,0,9.631-10.994,9.631H82.145V75.26h5.412ZM172.57,90.984H146.576v10.994h12.23V113.91a18.186,18.186,0,0,1-7.84,1.406q-8.226,0-13.061-5.156t-4.837-14.574q0-9.289,5.391-14.851t13.955-5.561q10.229,0,17.3,4.091V66.354a50.2,50.2,0,0,0-17.13-2.685q-15.427,0-24.716,9.077t-9.29,23.48q0,14.318,8.5,22.479t23.245,8.16q13.3,0,22.244-5.156V90.984Z"/>
</svg>
