<svg xmlns="http://www.w3.org/2000/svg" width="200" height="200" viewBox="0 0 200 200">
  <defs>
    <style>
      .cls-1 {
        fill: #fff;
        fill-rule: evenodd;
      }
    </style>
  </defs>
  <path id="Rounded_Rectangle_1" data-name="Rounded Rectangle 1" class="cls-1" d="M10,0H190a10,10,0,0,1,10,10V189a10,10,0,0,1-10,10H10A10,10,0,0,1,0,189V10A10,10,0,0,1,10,0ZM35.015,104.748q11.079,0,17.706-5.689a18.687,18.687,0,0,0,6.626-14.893q0-19.474-23.1-19.474H14.688V125.8H28.452V104.748h6.562ZM33.864,75.26q10.994,0,10.994,9.418,0,9.631-10.994,9.631H28.452V75.26h5.412Zm89.4-10.568h-13V98.484a65.191,65.191,0,0,0,.341,8.4H110.44q-1.405-2.472-3.068-4.986l-24.247-37.2H68.3V125.8h13V92.22q0-6.648-.341-9.886h0.17A55.34,55.34,0,0,0,84.191,87.4L109.375,125.8h13.892V64.692ZM187.4,90.984H161.406v10.994h12.23V113.91a18.191,18.191,0,0,1-7.841,1.406q-8.224,0-13.061-5.156T147.9,95.586q0-9.289,5.391-14.851t13.956-5.561q10.227,0,17.3,4.091V66.354a50.205,50.205,0,0,0-17.131-2.685q-15.426,0-24.715,9.077t-9.29,23.48q0,14.318,8.5,22.479t23.246,8.16q13.295,0,22.244-5.156V90.984Z"/>
</svg>
