<svg xmlns="http://www.w3.org/2000/svg" width="200" height="200" viewBox="0 0 200 200">
  <defs>
    <style>
      .cls-1 {
        fill: #fff;
        fill-rule: evenodd;
      }
    </style>
  </defs>
  <path id="Rounded_Rectangle_1" data-name="Rounded Rectangle 1" class="cls-1" d="M10,0H190a10,10,0,0,1,10,10V189a10,10,0,0,1-10,10H10A10,10,0,0,1,0,189V10A10,10,0,0,1,10,0ZM64.162,64.692H15.583V75.9H32.927v49.9H46.733V75.9H64.162V64.692Zm55.312,26.292H93.48v10.994h12.23V113.91a18.187,18.187,0,0,1-7.841,1.406q-8.225,0-13.061-5.156T79.972,95.586q0-9.289,5.391-14.851t13.956-5.561q10.227,0,17.3,4.091V66.354a50.2,50.2,0,0,0-17.13-2.685q-15.427,0-24.716,9.077t-9.29,23.48q0,14.318,8.5,22.479t23.245,8.16q13.3,0,22.244-5.156V90.984Zm43.892-26.292H147.045L124.8,125.8h14.915l4.3-13.594h21.732L170.1,125.8h15ZM146.96,101.637l6.648-20.71a23.365,23.365,0,0,0,1.065-5.327h0.341a26.638,26.638,0,0,0,1.023,5.5l6.562,20.539H146.96Z"/>
</svg>
