<svg xmlns="http://www.w3.org/2000/svg" xmlns:xlink="http://www.w3.org/1999/xlink" preserveAspectRatio="xMidYMid" width="158" height="182" viewBox="0 0 158 182">
  <defs>
    <style>
      .cls-1 {
        fill: #838383;
        fill-rule: evenodd;
      }
    </style>
  </defs>
  <path d="M83.000,173.000 L83.000,95.000 L151.000,55.000 L151.000,133.000 L83.000,173.000 ZM11.000,47.000 L79.000,8.000 L147.000,47.000 L79.000,87.000 L11.000,47.000 ZM75.000,173.000 L7.000,133.000 L7.000,55.000 L75.000,95.000 L75.000,173.000 ZM35.132,116.429 C34.791,115.495 34.334,114.591 33.759,113.716 C33.207,112.881 32.597,112.140 31.928,111.494 C31.260,110.848 30.626,110.315 30.028,109.894 L30.028,109.613 C31.506,110.062 32.697,109.882 33.600,109.075 C34.504,108.268 34.956,107.037 34.956,105.382 C34.956,104.128 34.721,102.905 34.252,101.714 C33.782,100.523 33.066,99.337 32.104,98.157 C31.295,97.167 30.268,96.169 29.024,95.161 C27.780,94.154 26.331,93.198 24.677,92.293 C22.975,91.363 21.298,90.649 19.643,90.151 C17.989,89.653 16.680,89.361 15.718,89.275 L15.718,95.742 L16.369,96.098 C17.578,95.945 18.827,96.004 20.118,96.276 C21.409,96.549 22.606,96.986 23.709,97.589 C24.155,97.833 24.688,98.165 25.311,98.585 C25.932,99.006 26.472,99.461 26.930,99.952 C27.340,100.390 27.681,100.866 27.951,101.381 C28.220,101.895 28.355,102.453 28.355,103.054 C28.355,103.868 28.226,104.414 27.968,104.694 C27.710,104.973 27.323,105.098 26.807,105.069 C26.314,105.040 25.715,104.866 25.011,104.548 C24.307,104.230 23.498,103.820 22.582,103.320 L21.086,102.501 L21.086,107.826 L22.530,108.616 C23.222,108.994 23.973,109.415 24.783,109.878 C25.592,110.341 26.284,110.836 26.859,111.364 C27.434,111.879 27.898,112.470 28.250,113.136 C28.602,113.802 28.778,114.569 28.778,115.436 C28.778,116.331 28.649,116.944 28.391,117.277 C28.132,117.609 27.786,117.824 27.352,117.920 C26.801,118.045 26.126,117.953 25.328,117.644 C24.530,117.334 23.791,116.993 23.110,116.621 C21.949,115.986 20.667,115.031 19.265,113.757 C17.862,112.483 16.657,111.223 15.648,109.977 L14.961,109.602 L14.961,116.148 C15.935,117.161 17.199,118.286 18.754,119.524 C20.309,120.761 22.172,121.973 24.343,123.161 C26.243,124.200 27.860,124.860 29.192,125.142 C30.523,125.423 31.682,125.413 32.668,125.111 C33.677,124.796 34.425,124.164 34.912,123.215 C35.399,122.267 35.642,121.092 35.642,119.691 C35.642,118.450 35.472,117.363 35.132,116.429 ZM64.675,122.206 C63.636,119.510 62.213,117.040 60.406,114.797 C59.350,113.472 58.048,112.183 56.499,110.928 C54.950,109.674 53.108,108.463 50.972,107.295 L41.468,102.097 L41.468,131.906 L50.708,136.960 C52.797,138.102 54.604,138.917 56.129,139.404 C57.655,139.891 59.057,140.044 60.336,139.863 C62.037,139.619 63.445,138.704 64.560,137.118 C65.675,135.533 66.232,133.352 66.232,130.575 C66.232,127.693 65.713,124.903 64.675,122.206 ZM55.672,132.928 C54.956,132.977 54.222,132.879 53.472,132.635 C52.721,132.392 51.541,131.830 49.934,130.951 L48.227,130.017 L48.227,111.359 L49.934,112.293 C51.389,113.088 52.477,113.754 53.199,114.288 C53.921,114.823 54.627,115.473 55.320,116.239 C56.681,117.771 57.675,119.406 58.303,121.144 C58.931,122.882 59.245,124.732 59.245,126.694 C59.245,128.669 58.957,130.170 58.382,131.197 C57.807,132.224 56.904,132.801 55.672,132.928 Z" class="cls-1"/>
</svg>
