<svg xmlns="http://www.w3.org/2000/svg" xmlns:xlink="http://www.w3.org/1999/xlink" preserveAspectRatio="xMidYMid" width="170" height="192" viewBox="0 0 170 192">
  <defs>
    <style>
      .cls-1 {
        fill: #d9534f;
        fill-rule: evenodd;
      }
    </style>
  </defs>
  <path d="M170.000,160.000 L141.065,160.000 C131.004,179.028 111.022,192.000 88.000,192.000 L81.000,192.000 C57.978,192.000 37.996,179.028 27.935,160.000 L-0.000,160.000 L-0.000,139.000 L21.420,139.000 C21.153,136.702 21.000,134.369 21.000,132.000 L21.000,117.000 L-0.000,117.000 L-0.000,96.000 L21.000,96.000 L21.000,82.000 C21.000,79.631 21.153,77.298 21.420,75.000 L-0.000,75.000 L-0.000,54.000 L27.935,54.000 C32.779,44.837 39.941,37.102 48.619,31.520 L31.948,14.849 L46.797,-0.000 L69.863,23.066 C73.475,22.387 77.191,22.000 81.000,22.000 L88.000,22.000 C92.061,22.000 96.021,22.424 99.855,23.193 L123.048,-0.000 L137.989,14.941 L121.000,31.930 C129.397,37.479 136.337,45.057 141.065,54.000 L170.000,54.000 L170.000,75.000 L147.580,75.000 C147.847,77.298 148.000,79.631 148.000,82.000 L148.000,96.000 L170.000,96.000 L170.000,117.000 L148.000,117.000 L148.000,132.000 C148.000,134.369 147.847,136.702 147.580,139.000 L170.000,139.000 L170.000,160.000 ZM63.000,138.000 L107.000,138.000 L107.000,117.000 L63.000,117.000 L63.000,138.000 ZM63.000,75.000 L63.000,96.000 L107.000,96.000 L107.000,75.000 L63.000,75.000 Z" class="cls-1"/>
</svg>
