<svg xmlns="http://www.w3.org/2000/svg" xmlns:xlink="http://www.w3.org/1999/xlink" preserveAspectRatio="xMidYMid" width="60" height="60" viewBox="0 0 60 60">
  <defs>
    <style>
      .cls-1 {
        fill: #000;
        opacity: 0.1;
        fill-rule: evenodd;
      }
    </style>
  </defs>
  <path d="M54.985,50.401 C54.985,53.163 54.938,56.000 54.938,56.000 L30.000,56.000 L5.000,56.000 C5.000,56.000 4.952,53.154 4.952,50.382 C4.952,47.257 4.712,44.937 9.473,42.027 C11.321,40.897 15.627,38.926 20.000,38.000 C25.000,36.941 30.000,37.000 30.000,37.000 L30.000,37.062 C30.000,37.062 34.987,37.003 39.975,38.059 C44.337,38.982 48.633,40.946 50.476,42.072 C55.225,44.973 54.985,47.286 54.985,50.401 ZM30.000,30.000 C22.820,30.000 17.000,24.180 17.000,17.000 C17.000,9.820 22.820,4.000 30.000,4.000 C37.180,4.000 43.000,9.820 43.000,17.000 C43.000,24.180 37.180,30.000 30.000,30.000 Z" class="cls-1"/>
</svg>
