<svg xmlns="http://www.w3.org/2000/svg" width="99" height="62" viewBox="0 0 99 62">
  <defs>
    <style>
      .cls-1 {
        fill: #fff;
        fill-rule: evenodd;
      }
    </style>
  </defs>
  <path id="PBR" class="cls-1" d="M12.914,37.468q6.6,0,10.552-3.39A11.137,11.137,0,0,0,27.415,25.2q0-11.605-13.764-11.606H0.8V50.013H9V37.468h3.911ZM12.229,19.894q6.552,0,6.552,5.612,0,5.74-6.552,5.739H9V19.894h3.225ZM46.741,50.013q6.2,0,9.777-2.933A9.72,9.72,0,0,0,60.1,39.144a8.026,8.026,0,0,0-2.324-5.815,10.094,10.094,0,0,0-6.209-2.87v-0.1a10.473,10.473,0,0,0,5.092-3.073,7.454,7.454,0,0,0,1.994-5.155,7.188,7.188,0,0,0-3.276-6.3Q52.1,13.6,46,13.6H32.748V50.013H46.741ZM44.024,19.64q5.993,0,5.993,4.012a4.2,4.2,0,0,1-1.46,3.39,6.01,6.01,0,0,1-4,1.232H40.951V19.64h3.073ZM45.446,34.37a7.024,7.024,0,0,1,4.432,1.244,4.117,4.117,0,0,1,1.587,3.428,4.411,4.411,0,0,1-1.613,3.606A6.84,6.84,0,0,1,45.4,43.969H40.951v-9.6h4.5Zm44.315,4.876q-0.533-.838-1.181-1.714a18.657,18.657,0,0,0-1.359-1.638,11.291,11.291,0,0,0-1.473-1.333,5.223,5.223,0,0,0-1.575-.825v-0.1a13.293,13.293,0,0,0,3.365-1.473,10.465,10.465,0,0,0,2.578-2.235,9.775,9.775,0,0,0,1.651-2.908,10.258,10.258,0,0,0,.584-3.517q0-9.9-13.257-9.9h-13V50.013h8.2V36.071H76.5a3.16,3.16,0,0,1,1.409.317,4.709,4.709,0,0,1,1.244.914,10.624,10.624,0,0,1,1.181,1.435q0.584,0.838,1.219,1.9l5.663,9.371h9.422ZM78,19.742q5.714,0,5.714,4.774a5.085,5.085,0,0,1-1.625,3.835,5.894,5.894,0,0,1-4.241,1.524H74.3V19.742H78Z"/>
</svg>
