<svg xmlns="http://www.w3.org/2000/svg" width="62" height="91" viewBox="0 0 62 91">
  <metadata><?xpacket begin="﻿" id="W5M0MpCehiHzreSzNTczkc9d"?>
<x:xmpmeta xmlns:x="adobe:ns:meta/" x:xmptk="Adobe XMP Core 5.6-c138 79.159824, 2016/09/14-01:09:01        ">
   <rdf:RDF xmlns:rdf="http://www.w3.org/1999/02/22-rdf-syntax-ns#">
      <rdf:Description rdf:about=""/>
   </rdf:RDF>
</x:xmpmeta>
                                                                                                    
                                                                                                    
                                                                                                    
                                                                                                    
                                                                                                    
                                                                                                    
                                                                                                    
                                                                                                    
                                                                                                    
                                                                                                    
                                                                                                    
                                                                                                    
                                                                                                    
                                                                                                    
                                                                                                    
                                                                                                    
                                                                                                    
                                                                                                    
                                                                                                    
                                                                                                    
                           
<?xpacket end="w"?></metadata>
<defs>
    <style>
      .cls-1 {
        fill: #fff;
        fill-rule: evenodd;
      }
    </style>
  </defs>
  <path class="cls-1" d="M60.936,40.067c-1.712.106-4.99,0.3-5.94,0.27a9,9,0,1,0-.024,11.354c1.183,0.016,4.273.167,5.933,0.252C60.655,61.69,60,72,60,72s-11.967-1.633-24.935-1.948c0.06,1,.138,2.431.134,2.985a9,9,0,1,1-8.4,0c-0.01-.775.064-2.072,0.125-2.987A228.494,228.494,0,0,0,3,72s-0.71-9.3-.932-20.105c1.7-.084,3.982-0.189,4.96-0.2A9,9,0,1,0,7,40.338c-0.788.022-3.177-.106-4.947-0.21C2.266,28.893,3,19,3,19a230.485,230.485,0,0,0,23.926,1.947c-0.06-.915-0.134-2.21-0.124-2.985a9,9,0,1,1,8.4,0c0,0.555-.074,1.987-0.134,2.987C48.033,20.64,60,19,60,19S60.717,30.026,60.936,40.067Z"/>
</svg>
