<svg xmlns="http://www.w3.org/2000/svg" xmlns:xlink="http://www.w3.org/1999/xlink" preserveAspectRatio="xMidYMid" width="100" height="100" viewBox="0 0 100 100">
  <defs>
    <style>
      .cls-1 {
        fill: #fff;
        fill-rule: evenodd;
      }
    </style>
  </defs>
  <path d="M63.021,77.984 L63.021,68.234 L74.823,68.234 L74.823,38.719 L63.021,38.719 L63.021,29.606 C64.750,29.606 66.466,29.493 68.171,29.268 C69.874,29.043 71.240,28.681 72.267,28.181 C73.470,27.581 74.403,26.774 75.068,25.762 C75.731,24.749 76.114,23.493 76.214,21.993 L88.467,21.993 L88.467,68.234 L100.006,68.234 L100.006,77.984 L63.021,77.984 ZM29.157,77.234 L19.234,77.234 L19.234,58.183 L-0.010,58.183 L-0.010,48.507 L19.234,48.507 L19.234,29.456 L29.157,29.456 L29.157,48.507 L48.401,48.507 L48.401,58.183 L29.157,58.183 L29.157,77.234 Z" class="cls-1"/>
</svg>
