<svg xmlns="http://www.w3.org/2000/svg" width="50" height="50" viewBox="0 0 50 50">
  <defs>
    <style>
      .cls-1 {
        fill: #fff;
        fill-rule: evenodd;
      }
    </style>
  </defs>
  <path id="Ellipse_1_copy_2" data-name="Ellipse 1 copy 2" class="cls-1" d="M21.3,36.856l0.179-.258L20.7,41,32,36.052l-9-8.018-0.688,3.879C14.76,31.271,9,27.992,9,24.025c0-4.428,7.163-8.018,16-8.018s16,3.59,16,8.018c0,2.429-2.164,4.6-5.568,6.071l1.974,4.62C42.609,32.526,46,29.008,46,25.027,46,18.385,36.6,13,25,13S4,18.385,4,25.027C4,30.945,11.471,35.854,21.3,36.856Z"/>
</svg>
