<svg xmlns="http://www.w3.org/2000/svg" width="50" height="50" viewBox="0 0 50 50">
  <defs>
    <style>
      .cls-1 {
        fill: #fff;
        fill-rule: evenodd;
      }
    </style>
  </defs>
  <path id="Ellipse_1_copy" data-name="Ellipse 1 copy" class="cls-1" d="M28.7,36.856L28.518,36.6,29.3,41,18,36.052l9-8.018,0.688,3.879C35.24,31.271,41,27.992,41,24.025c0-4.428-7.163-8.018-16-8.018S9,19.6,9,24.025c0,2.429,2.164,4.6,5.568,6.071l-1.974,4.62C7.392,32.526,4,29.008,4,25.027,4,18.385,13.4,13,25,13s21,5.385,21,12.027C46,30.945,38.529,35.854,28.7,36.856Z"/>
</svg>
