<svg xmlns="http://www.w3.org/2000/svg" xmlns:xlink="http://www.w3.org/1999/xlink" preserveAspectRatio="xMidYMid" width="234" height="234" viewBox="0 0 234 234">
  <defs>
    <style>
      .cls-1 {
        fill: #fff;
        fill-rule: evenodd;
      }
    </style>
  </defs>
  <path d="M52.628,222.541 L10.202,180.114 L28.587,161.730 L43.436,176.579 L54.749,165.265 L39.900,150.416 L53.335,136.981 L78.791,162.437 L90.105,151.123 L64.649,125.667 L77.377,112.939 L92.226,127.789 L103.540,116.475 L88.691,101.626 L102.833,87.483 L128.289,112.939 L139.602,101.626 L114.146,76.170 L127.581,62.735 L142.431,77.584 L153.744,66.270 L138.895,51.421 L152.330,37.986 L177.786,63.442 L189.100,52.128 L163.644,26.672 L180.614,9.702 L223.041,52.128 L52.628,222.541 Z" class="cls-1"/>
</svg>
