<svg xmlns="http://www.w3.org/2000/svg" width="200" height="199" viewBox="0 0 200 199">
  <defs>
    <style>
      .cls-1 {
        fill: #fff;
        fill-rule: evenodd;
      }
    </style>
  </defs>
  <path class="cls-1" d="M90.549,0.3c10.1-.128,21.626-1.043,30.064,1.2,37.4,9.941,61.988,30.1,74.558,64.826,4.14,11.436,6.769,33.725,3.006,48.62-2.463,9.75-4.682,19.1-8.418,27.611-2.16,4.922-6.069,9.615-9.019,13.806-15.954,22.663-35.968,34.359-67.944,41.417-16.606,3.665-36.018-1.649-47.5-6C33.082,179.566,15.383,158.3,4.566,124.551,0.891,113.084-1.849,93.923,1.56,79.533c1.493-6.3,2.418-13.359,4.81-19.208C16.684,35.106,35.856,17.191,61.086,6.9L80.928,1.5C84.129,0.723,88.124,1.809,90.549.3Zm4.209,5.4L77.321,8.1A38.436,38.436,0,0,0,55.073,24.31c-14.995,23.672-6.117,59.523,3.608,81.633,2.853,6.488,6.12,17.893,14.431,18.608,8.288-8.377,12.281-18.882,17.437-30.613,7.7-17.522,19.323-42.021,33.671-52.822,9.624-7.244,22.131-17.028,40.286-10.2-2.639-3.853-6.968-5.717-10.823-8.4C138.044,11.611,121.844,5.908,94.758,5.7Zm3.006,6.6c9.328-.294,28.335,1.261,30.665,7.2a3.054,3.054,0,0,1,.6,1.8c-12.092,8.926-44.795,10.549-55.918-.6l0.6-1.8a42.583,42.583,0,0,1,12.627-5.4C89.6,12.684,95.152,13.964,97.764,12.305ZM43.649,23.71c-2.394,3.09-6.682,4.743-9.019,7.8C26.53,42.119,18.5,53.1,14.186,67.528c-3.982,13.314-2.854,33.256.6,45.618,10.821,38.72,30.447,56.936,70.951,66.027,11.072,2.485,25.78.172,34.273-2.4,29.386-8.9,49.05-27.192,58.324-55.823,8.286-25.58,1.7-62.323-17.437-70.228-11.669-4.82-22.887,3.341-27.659,9.6-4.678,6.141-9.628,12.3-13.829,19.208-8.994,14.8-13.394,32.882-22.247,47.42-4.823,7.92-7.439,14.729-15.032,19.808-2.814,1.882-8.472,4.729-12.627,1.8-10.061-3.252-15.267-14.452-20.443-22.81C38.822,109.223,25.428,73.334,33.427,45.319,35.863,36.79,40.044,30.25,44.25,23.71h-0.6Z"/>
</svg>
