<svg xmlns="http://www.w3.org/2000/svg" xmlns:xlink="http://www.w3.org/1999/xlink" preserveAspectRatio="xMidYMid" width="25" height="25" viewBox="0 0 25 25">
  <defs>
    <style>
      .cls-1 {
        fill: #fff;
        fill-rule: evenodd;
      }
    </style>
  </defs>
  <path d="M14.547,20.156 C12.790,20.156 11.138,19.734 9.685,18.996 L3.618,24.659 C3.165,25.096 2.430,25.096 1.976,24.659 L0.334,23.076 C-0.119,22.639 -0.119,21.930 0.334,21.493 L5.993,15.860 C4.800,14.222 4.094,12.231 4.094,10.078 C4.094,4.512 8.774,0.000 14.547,0.000 C20.320,0.000 25.000,4.512 25.000,10.078 C25.000,15.644 20.320,20.156 14.547,20.156 ZM14.562,3.375 C10.714,3.375 7.594,6.376 7.594,10.078 C7.594,13.780 10.714,16.781 14.562,16.781 C18.411,16.781 21.531,13.780 21.531,10.078 C21.531,6.376 18.411,3.375 14.562,3.375 ZM15.719,14.562 L13.375,14.562 L13.375,11.219 L9.906,11.219 L9.906,8.969 L13.375,8.969 L13.375,5.562 L15.719,5.562 L15.719,8.969 L19.219,8.969 L19.219,11.219 L15.719,11.219 L15.719,14.562 Z" class="cls-1"/>
</svg>
