<svg xmlns="http://www.w3.org/2000/svg" xmlns:xlink="http://www.w3.org/1999/xlink" preserveAspectRatio="xMidYMid" width="63" height="29" viewBox="0 0 63 29">
  <defs>
    <style>
      .cls-1 {
        fill: #888888;
        fill-rule: evenodd;
      }
    </style>
  </defs>
  <path d="M62.523,25.164 C62.309,25.950 61.989,26.622 61.563,27.180 C61.237,27.594 60.755,27.997 60.115,28.390 C59.475,28.782 58.606,28.979 57.509,28.979 C56.432,28.979 55.569,28.782 54.919,28.390 C54.268,27.997 53.781,27.594 53.456,27.180 C53.029,26.622 52.709,25.950 52.496,25.164 C52.282,24.378 52.176,23.479 52.176,22.466 L52.176,11.393 C52.176,10.380 52.282,9.481 52.496,8.694 C52.709,7.909 53.029,7.237 53.456,6.678 C53.618,6.472 53.821,6.265 54.065,6.058 C54.309,5.852 54.593,5.655 54.919,5.469 C55.243,5.304 55.620,5.164 56.046,5.050 C56.473,4.937 56.961,4.879 57.509,4.879 C58.606,4.879 59.475,5.076 60.115,5.469 C60.755,5.862 61.237,6.265 61.563,6.678 C61.989,7.237 62.309,7.909 62.523,8.694 C62.736,9.481 62.843,10.380 62.843,11.393 L62.843,22.466 C62.843,23.479 62.736,24.378 62.523,25.164 ZM59.978,11.393 C59.978,10.504 59.891,9.811 59.719,9.315 C59.546,8.819 59.327,8.467 59.063,8.260 C58.799,8.054 58.525,7.930 58.241,7.888 C57.956,7.847 57.712,7.826 57.509,7.826 C57.285,7.826 57.037,7.847 56.762,7.888 C56.488,7.930 56.219,8.054 55.955,8.260 C55.691,8.467 55.472,8.819 55.300,9.315 C55.127,9.811 55.041,10.504 55.041,11.393 L55.041,22.466 C55.041,23.376 55.127,24.074 55.300,24.559 C55.472,25.045 55.691,25.392 55.955,25.598 C56.219,25.805 56.488,25.935 56.762,25.986 C57.037,26.038 57.285,26.064 57.509,26.064 C57.712,26.064 57.956,26.038 58.241,25.986 C58.525,25.935 58.799,25.805 59.063,25.598 C59.327,25.392 59.546,25.045 59.719,24.559 C59.891,24.074 59.978,23.376 59.978,22.466 L59.978,11.393 ZM38.247,25.446 L49.174,25.446 L49.174,28.384 L38.247,28.384 L38.247,25.446 ZM47.732,21.153 C47.410,21.547 46.938,21.934 46.314,22.317 C45.691,22.700 44.836,22.892 43.750,22.892 C43.207,22.892 42.725,22.838 42.302,22.730 C41.880,22.622 41.508,22.479 41.186,22.303 C40.864,22.146 40.583,21.964 40.342,21.757 C40.100,21.551 39.899,21.350 39.738,21.153 C39.316,20.623 38.999,19.985 38.788,19.238 C38.577,18.492 38.471,17.637 38.471,16.675 L38.471,6.185 C38.471,5.223 38.577,4.368 38.788,3.622 C38.999,2.875 39.316,2.237 39.738,1.706 C40.060,1.314 40.538,0.931 41.171,0.557 C41.805,0.184 42.664,-0.003 43.750,-0.003 C44.836,-0.003 45.691,0.184 46.314,0.557 C46.938,0.931 47.410,1.314 47.732,1.706 C48.174,2.256 48.501,2.900 48.713,3.636 C48.924,4.373 49.029,5.223 49.029,6.185 L49.029,7.570 L46.164,7.570 L46.164,6.185 C46.164,5.341 46.078,4.678 45.907,4.196 C45.736,3.715 45.530,3.376 45.289,3.180 C45.027,2.983 44.756,2.866 44.474,2.826 C44.192,2.787 43.951,2.767 43.750,2.767 C43.529,2.767 43.283,2.787 43.011,2.826 C42.740,2.866 42.473,2.983 42.212,3.180 C41.950,3.376 41.734,3.715 41.563,4.196 C41.392,4.678 41.307,5.341 41.307,6.185 L41.307,16.675 C41.307,17.304 41.367,17.853 41.488,18.325 C41.609,18.796 41.779,19.170 42.001,19.444 C42.041,19.523 42.106,19.597 42.197,19.665 C42.287,19.735 42.403,19.808 42.544,19.886 C42.684,19.965 42.855,20.024 43.057,20.063 C43.257,20.103 43.489,20.122 43.750,20.122 C44.293,20.122 44.690,20.044 44.942,19.886 C45.193,19.729 45.379,19.582 45.500,19.444 C45.721,19.150 45.887,18.772 45.998,18.310 C46.108,17.849 46.164,17.304 46.164,16.675 L46.164,15.290 L49.029,15.290 L49.029,16.675 C49.029,17.637 48.924,18.487 48.713,19.223 C48.501,19.960 48.174,20.604 47.732,21.153 ZM27.845,14.401 C28.109,14.670 28.409,14.908 28.744,15.115 C29.079,15.322 29.430,15.498 29.795,15.642 L30.283,15.859 C30.567,15.983 30.958,16.165 31.456,16.402 C31.954,16.640 32.447,16.997 32.934,17.472 C33.605,18.092 34.087,18.847 34.382,19.736 C34.676,20.626 34.824,21.597 34.824,22.652 C34.824,24.389 34.356,25.877 33.422,27.118 C32.487,28.359 31.167,28.979 29.460,28.979 C27.692,28.979 26.356,28.410 25.452,27.273 C24.548,26.136 24.096,24.544 24.096,22.497 L24.096,21.039 L26.961,21.039 L26.961,22.497 C26.961,23.159 27.022,23.732 27.144,24.218 C27.266,24.704 27.438,25.092 27.662,25.381 C27.702,25.464 27.769,25.536 27.860,25.598 C27.951,25.660 28.068,25.733 28.211,25.815 C28.352,25.898 28.525,25.960 28.729,26.002 C28.931,26.043 29.175,26.064 29.460,26.064 C30.009,26.064 30.445,25.939 30.771,25.691 C31.095,25.443 31.350,25.154 31.532,24.823 C31.695,24.492 31.801,24.125 31.852,23.722 C31.903,23.319 31.929,22.962 31.929,22.652 C31.929,21.969 31.852,21.380 31.700,20.884 C31.548,20.388 31.329,19.995 31.045,19.705 C30.781,19.457 30.486,19.245 30.161,19.069 C29.836,18.894 29.511,18.734 29.186,18.589 L28.637,18.341 C28.312,18.196 27.900,17.994 27.403,17.736 C26.905,17.477 26.412,17.111 25.925,16.635 C25.295,15.994 24.832,15.250 24.538,14.401 C24.243,13.554 24.096,12.623 24.096,11.610 C24.096,10.597 24.218,9.667 24.462,8.819 C24.706,7.971 25.081,7.258 25.590,6.678 C26.057,6.120 26.620,5.681 27.281,5.360 C27.941,5.040 28.668,4.879 29.460,4.879 C30.557,4.879 31.426,5.076 32.066,5.469 C32.706,5.862 33.188,6.265 33.513,6.678 C33.960,7.258 34.291,7.940 34.504,8.725 C34.717,9.512 34.824,10.411 34.824,11.424 L34.824,12.882 L31.929,12.882 L31.929,11.424 C31.929,10.535 31.842,9.837 31.670,9.330 C31.497,8.824 31.278,8.467 31.014,8.260 C30.750,8.054 30.476,7.930 30.191,7.888 C29.907,7.847 29.663,7.826 29.460,7.826 C28.871,7.826 28.413,7.971 28.089,8.260 C27.763,8.550 27.520,8.891 27.357,9.284 C27.154,9.718 27.037,10.163 27.007,10.617 C26.976,11.073 26.961,11.404 26.961,11.610 C26.961,12.251 27.037,12.799 27.190,13.254 C27.342,13.709 27.560,14.091 27.845,14.401 ZM16.965,5.531 L19.830,5.531 L19.830,28.390 L16.965,28.390 L16.965,5.531 ZM5.720,28.359 L0.143,5.500 L3.099,5.500 L6.847,20.853 L10.657,5.500 L13.613,5.500 L7.975,28.359 L5.720,28.359 Z" class="cls-1"/>
</svg>
